<?xml version="1.0" encoding="UTF-8" standalone="no"?>
<!-- Created with Inkscape (http://www.inkscape.org/) -->

<svg
   version="1.1"
   id="svg1"
   width="120"
   height="118"
   viewBox="0 0 120 118"
   xmlns="http://www.w3.org/2000/svg"
   xmlns:svg="http://www.w3.org/2000/svg">
  <defs
     id="defs1" />
  <g
     id="g1">
    <path
       style="fill:#000000;stroke-width:1.00836"
       d="M 47.325592,111.51913 C 40.069036,110.53678 33.517947,106.98507 27.187901,103.72976 21.932314,99.913963 17.75379,94.998976 13.035377,90.638628 9.6268006,83.895959 5.7287844,77.200209 4.6065605,69.698475 2.729245,62.198351 3.6539562,54.342078 4.6745088,46.786206 6.5460347,39.847254 9.3281694,32.978895 13.514654,26.997987 19.385084,20.185806 26.352387,13.907091 34.923182,10.266375 40.120791,7.2506012 46.195589,6.5206733 52.081276,5.4707812 61.589759,4.3979447 71.650453,4.7621684 80.582128,8.31318 c 7.053153,3.424792 15.053141,6.042074 19.792272,12.459298 11.31597,9.973387 16.44842,24.902001 16.08403,39.29614 0.21342,7.38315 -2.22188,14.54752 -4.73241,21.446513 -2.74023,6.988995 -7.85535,12.742216 -13.75611,17.554302 -5.550168,6.280617 -14.033886,9.100307 -21.907094,11.759117 -6.04808,2.02183 -12.411839,2.48675 -18.7643,2.11522 -3.365284,-0.13695 -6.713974,-0.61842 -9.972914,-1.42464 z M 74.422104,98.84927 c 5.025054,-1.647757 6.657846,-7.844069 12.443461,-8.366339 1.775011,-4.892316 -7.116086,-4.587712 -10.536444,-4.544512 -6.518281,-1.083881 -0.709749,9.779114 -7.002986,6.926706 -1.562561,-2.340576 0.03156,-5.299244 -0.335048,-8.012501 0.100546,-2.887736 0.201262,-5.77547 0.301888,-8.663204 6.030078,-0.686935 8.381645,7.397036 14.480345,6.380384 2.511386,-0.157541 5.483515,0.795318 6.967595,-1.83488 5.276061,-3.981042 5.510493,-10.17253 10.132165,-14.450918 3.76874,-6.90834 -4.008779,-12.389167 -3.579176,-19.319186 0.194829,-6.253119 -9.03592,-6.317718 -7.933719,-12.749267 1.156058,-6.922987 -11.642987,-3.920175 -10.866556,-10.91167 -0.642132,-6.290206 -13.039165,-7.307645 -15.171458,-0.859822 -2.109928,6.68319 0.06001,13.740804 -0.741492,20.58814 0.01739,16.614792 0.03468,33.229585 0.05197,49.844377 1.635546,4.299715 6.774897,9.291552 11.789397,5.972692 z m 8.854831,-22.881729 c -4.199552,-3.427401 -10.115968,-7.072607 -14.654789,-6.34329 -1.91917,-5.828221 7.492697,-8.984999 10.626826,-4.777797 2.374636,3.448485 6.472105,7.292279 9.351086,9.343618 -0.169188,2.33684 -3.591203,2.760119 -5.323123,1.777469 z M 86.59166,64.704734 c -5.476761,-5.306448 7.636334,-11.559469 8.709165,-3.559318 1.022623,4.491626 -5.957516,6.839705 -8.709165,3.559318 z M 68.77504,56.171696 c 1.36914,-5.609215 9.795484,-1.301977 10.618664,-8.009161 2.276573,-5.409316 15.42139,-1.592117 10.058131,2.445903 -5.853462,-0.136787 -8.414172,6.628129 -13.570399,7.421433 H 68.77504 Z m 0,-19.16589 c 0.862874,-4.069738 -2.56065,-13.087515 3.89694,-13.087385 5.851291,3.553456 -3.422005,8.538821 -0.219174,12.78844 4.037844,5.349285 8.817058,-7.238268 11.99845,0.02386 0.06564,4.321391 -7.4367,3.00587 -8.789627,7.55688 -2.305672,4.326558 -9.010228,3.417851 -6.922252,-2.01173 0.279644,-1.757328 -0.04734,-3.506529 0.03568,-5.270062 z m -34.215824,2.439955 c -0.22429,-8.200256 6.748732,-1.849054 10.832501,-2.655307 3.894518,-4.129667 -4.628451,-9.167363 1.740454,-12.522494 5.799515,-1.962831 2.740923,6.428712 3.74858,9.409086 -0.378149,4.201651 2.22353,11.228949 -2.057138,13.30491 -4.752849,-0.62187 -6.739033,-5.774437 -11.059565,-7.409179 m -12.538911,2.270662 c -5.542297,3.790418 -0.646504,11.852938 -6.515939,15.760186 -3.304392,5.63881 2.271276,10.040916 4.848048,14.472092 1.703785,5.006374 5.220507,11.172953 11.673824,10.792122 6.277507,1.151074 10.220936,-5.671876 14.708595,-6.692103 2.881143,4.069351 0.388291,9.503387 1.321034,14.038228 -0.32952,4.04724 -7.330847,4.216571 -4.353653,-0.284762 0.831745,-6.802451 -8.808222,-4.456047 -12.507579,-2.274119 -3.239148,4.468657 6.322055,6.065918 8.223926,9.567618 1.910687,2.777349 5.31082,1.920144 8.23245,2.034269 3.642094,0.417305 5.916505,-3.788292 7.094224,-6.523377 -0.115211,-22.931155 -0.02071,-45.961706 -0.05146,-68.931861 -3.307056,-6.347655 -11.979985,-7.925226 -16.851733,-2.597182 -2.144124,2.902569 0.675976,9.397032 -5.816523,7.702739 -5.509398,0.926339 -5.23852,8.253636 -5.591047,10.90453 -1.648975,0.100966 -4.414153,2.03162 -4.414153,2.03162 z m 16.07283,22.209876 c 4.045533,-2.111662 12.950632,2.060917 7.672439,6.407972 -6.974661,-1.985842 -7.423231,6.88379 -17.158175,5.396703 -4.580686,-0.167097 8.715105,-10.803643 9.485736,-11.804675 z m -13.96659,1.524078 c -6.660792,-1.849292 -1.149705,-11.091517 4.291614,-7.922932 5.764607,2.96362 1.186735,11.619049 -4.291614,7.922932 z M 44.230955,58.23277 C 38.041782,57.357893 36.260499,48.464809 29.077891,50.086098 27.1233,44.640651 39.664864,43.57081 41.345883,47.829654 c 1.8276,3.467119 3.716897,5.671636 7.397599,5.292229 5.526315,-0.981696 1.705254,7.565008 -2.775782,5.287807 l -0.849747,-0.07484 z"
       id="path2" />
  </g>
</svg>
